<?xml version="1.0" encoding="utf-8"?>
<!-- Generator: Adobe Illustrator 28.3.0, SVG Export Plug-In . SVG Version: 6.00 Build 0)  -->
<svg version="1.1" id="Layer_1" xmlns="http://www.w3.org/2000/svg" xmlns:xlink="http://www.w3.org/1999/xlink" x="0px" y="0px"
	 viewBox="0 0 50.2 75" style="enable-background:new 0 0 50.2 75;" xml:space="preserve">
<style type="text/css">
	.st0{fill:#E5A120;}
	.st1{fill:none;stroke:#E5A120;stroke-width:0.61;}
</style>
<g id="Layer_2_00000080197014740766533160000013739463526228193205_">
	<g id="Layer_1-2">
		<g>
			<g>
				<path class="st0" d="M125.5,77.3c-0.1-0.6-0.5-0.8-1.2-0.8c-0.3,0-0.6,0.1-0.9,0.2c-0.2,0.1-0.3,0.4-0.3,0.6
					c0,0.2,0.1,0.4,0.2,0.5c0.2,0.2,0.4,0.3,0.6,0.3l1.2,0.4c0.4,0.1,0.7,0.3,1,0.6c0.2,0.3,0.4,0.6,0.4,1c0,0.4-0.2,0.9-0.6,1.1
					c-0.4,0.3-1,0.5-1.5,0.4c-0.6,0-1.1-0.1-1.6-0.5c-0.4-0.3-0.6-0.8-0.6-1.3h0.7c0,0.3,0.1,0.7,0.4,0.9c0.3,0.2,0.6,0.3,1,0.3
					c0.4,0,0.7-0.1,1-0.3c0.2-0.1,0.4-0.4,0.4-0.7c0-0.2-0.1-0.4-0.2-0.6c-0.2-0.2-0.4-0.3-0.7-0.4l-1-0.4c-0.4-0.1-0.8-0.3-1.1-0.6
					c-0.3-0.3-0.4-0.6-0.4-1c0-0.4,0.2-0.8,0.5-1.1c0.4-0.3,0.9-0.5,1.4-0.4c0.5,0,1,0.1,1.4,0.4c0.3,0.3,0.5,0.7,0.6,1.1
					L125.5,77.3z"/>
				<path class="st0" d="M129.8,75.9h0.7v5.8h-0.7V75.9z"/>
				<path class="st0" d="M135.1,75.9l2.9,4.6v-4.6h0.7v5.8h-0.8l-2.9-4.7v4.7h-0.7v-5.8H135.1z"/>
				<path class="st0" d="M144.3,75.8c0.5,0,1.1,0.1,1.5,0.5c0.4,0.3,0.7,0.7,0.8,1.2l-0.8,0.2c-0.1-0.3-0.3-0.6-0.6-0.9
					c-0.3-0.2-0.6-0.3-0.9-0.3c-0.5,0-0.9,0.2-1.2,0.6c-0.3,0.5-0.5,1.1-0.5,1.7c0,0.6,0.1,1.2,0.4,1.7c0.3,0.4,0.7,0.7,1.2,0.7
					c0.4,0,0.8-0.1,1.1-0.4c0.3-0.3,0.4-0.6,0.4-1h0.8c0,0.5-0.2,1.1-0.6,1.4c-0.5,0.4-1.1,0.6-1.7,0.5c-0.7,0-1.3-0.3-1.7-0.8
					c-0.5-0.6-0.7-1.4-0.7-2.2c0-0.8,0.2-1.6,0.7-2.2C143,76,143.7,75.7,144.3,75.8z"/>
				<path class="st0" d="M149.8,75.9h3.6v0.6h-2.8v1.9h2.7V79h-2.7v2h2.8v0.6h-3.6V75.9z"/>
				<path class="st0" d="M160.3,76.3c0.4-0.1,0.8-0.2,1.1-0.5h0.6v5.8h-0.7v-4.9c-0.3,0.2-0.6,0.3-0.9,0.3L160.3,76.3z"/>
				<path class="st0" d="M166.6,78.7c-0.8-0.3-1.1-0.8-1.1-1.4c0-0.4,0.2-0.9,0.6-1.1c0.4-0.3,1-0.4,1.5-0.4c0.6,0,1.1,0.1,1.6,0.4
					c0.4,0.3,0.6,0.7,0.6,1.2c0,0.3-0.1,0.6-0.3,0.8c-0.2,0.3-0.6,0.4-0.9,0.5l0.2,0.1c0.4,0.1,0.7,0.3,1,0.6
					c0.2,0.2,0.4,0.6,0.3,0.9c0,0.5-0.2,0.9-0.6,1.1c-0.5,0.3-1.1,0.5-1.7,0.4c-0.6,0-1.2-0.1-1.7-0.5c-0.4-0.3-0.6-0.7-0.6-1.2
					c0-0.3,0.1-0.7,0.4-0.9C165.9,78.9,166.2,78.8,166.6,78.7z M167.3,79c-0.3,0-0.7,0.1-0.9,0.4c-0.2,0.2-0.4,0.5-0.4,0.7
					c0,0.3,0.2,0.6,0.4,0.7c0.3,0.2,0.7,0.3,1.1,0.3c0.4,0,0.8-0.1,1.1-0.2c0.2-0.1,0.4-0.3,0.4-0.6c0-0.2-0.1-0.4-0.2-0.6
					c-0.2-0.2-0.4-0.3-0.6-0.3L167.3,79z M166.2,77.4c0,0.2,0.1,0.3,0.2,0.4c0.2,0.1,0.4,0.3,0.6,0.3l0.7,0.3c0.3,0,0.6-0.1,0.9-0.3
					c0.2-0.2,0.4-0.4,0.4-0.7c0-0.3-0.1-0.6-0.4-0.7c-0.3-0.2-0.6-0.3-1-0.3c-0.4,0-0.7,0.1-1,0.3C166.3,76.8,166.2,77.1,166.2,77.4
					L166.2,77.4z"/>
				<path class="st0" d="M176.1,77.3c0-0.5-0.4-0.9-1-0.9c0,0,0,0,0,0c-0.5,0-1,0.2-1.3,0.7c-0.3,0.6-0.5,1.2-0.4,1.8
					c0,0.3,0,0.5,0,0.8c0-0.5,0.2-0.9,0.5-1.2c0.3-0.3,0.8-0.4,1.2-0.4c1,0,1.8,0.7,1.8,1.7c0,0,0,0.1,0,0.1c0,0.5-0.2,1-0.5,1.3
					c-0.4,0.3-0.9,0.5-1.4,0.5c-0.7,0-1.3-0.3-1.7-0.8c-0.4-0.6-0.7-1.4-0.6-2.2c0-0.8,0.2-1.5,0.6-2.2c0.4-0.5,1.1-0.8,1.8-0.8
					c0.5,0,0.9,0.1,1.3,0.4c0.3,0.3,0.5,0.7,0.6,1.1L176.1,77.3z M175,78.8c-0.3,0-0.6,0.1-0.9,0.3c-0.2,0.2-0.4,0.5-0.3,0.8
					c0,0.3,0.1,0.6,0.3,0.8c0.2,0.2,0.5,0.3,0.9,0.3c0.3,0,0.6-0.1,0.9-0.3c0.5-0.5,0.5-1.2,0-1.7c0,0,0,0,0,0
					C175.6,78.9,175.3,78.8,175,78.8z"/>
				<path class="st0" d="M181.1,78.7c-0.8-0.3-1.1-0.8-1.1-1.4c0-0.4,0.2-0.9,0.6-1.1c0.4-0.3,1-0.4,1.5-0.4c0.6,0,1.1,0.1,1.6,0.4
					c0.4,0.3,0.6,0.7,0.6,1.2c0,0.3-0.1,0.6-0.3,0.8c-0.2,0.3-0.6,0.4-0.9,0.5l0.2,0.1c0.4,0.1,0.7,0.3,1,0.6
					c0.2,0.2,0.4,0.6,0.3,0.9c0,0.5-0.2,0.9-0.6,1.1c-0.5,0.3-1.1,0.5-1.7,0.4c-0.6,0-1.2-0.1-1.7-0.5c-0.4-0.3-0.6-0.7-0.6-1.2
					c0-0.3,0.1-0.7,0.4-0.9C180.5,78.9,180.8,78.8,181.1,78.7z M181.8,79c-0.3,0-0.7,0.1-0.9,0.4c-0.2,0.2-0.4,0.5-0.4,0.7
					c0,0.3,0.2,0.6,0.4,0.7c0.3,0.2,0.7,0.3,1.1,0.3c0.4,0,0.8-0.1,1.1-0.2c0.2-0.1,0.4-0.3,0.4-0.6c0-0.2-0.1-0.4-0.2-0.6
					c-0.2-0.2-0.4-0.3-0.6-0.3L181.8,79z M180.8,77.4c0,0.2,0.1,0.3,0.2,0.4c0.2,0.1,0.4,0.3,0.6,0.3l0.7,0.3c0.3,0,0.6-0.1,0.9-0.3
					c0.2-0.2,0.4-0.4,0.4-0.7c0-0.3-0.1-0.6-0.4-0.7c-0.3-0.2-0.6-0.3-1-0.3c-0.4,0-0.7,0.1-1,0.3C180.9,76.8,180.7,77.1,180.8,77.4
					L180.8,77.4z"/>
			</g>
			<line class="st1" x1="189.6" y1="76.4" x2="229.9" y2="76.4"/>
			<line class="st1" x1="76.3" y1="76.4" x2="116.7" y2="76.4"/>
			<path class="st0" d="M37.9,11.4v4h2c1.9,0,3.4,1.4,3.5,3.3c0,0,0,0,0,0.1h1.2c0,0,0,0,0-0.1c0.1-1.9,1.6-3.4,3.5-3.3h2v-4
				L37.9,11.4z"/>
			<path class="st0" d="M0,15.4h2c1.9,0,3.4,1.4,3.5,3.3c0,0,0,0,0,0.1h1.2c0,0,0,0,0-0.1c0.1-1.9,1.6-3.4,3.5-3.3h2v-4H0V15.4z"/>
			<path class="st0" d="M20.8,5.3c1.9,0,3.4,1.4,3.5,3.3c0,0,0,0,0,0.1h1.2c0,0,0,0,0-0.1c0.1-1.9,1.6-3.3,3.5-3.3h2V0H18.8v5.3
				H20.8L20.8,5.3z"/>
			<path class="st0" d="M25.1,15.6c2,0,3.6,1.6,3.6,3.6s-1.6,3.6-3.6,3.6s-3.6-1.6-3.6-3.6l0,0C21.4,17.2,23,15.6,25.1,15.6 M25,75
				c2.2-0.4,4.2-2.5,6.1-3.2v-61H18.8v61C20.7,72.5,22.7,74.6,25,75"/>
			<path class="st0" d="M12.2,68.9V21.1H0v31.8C1.8,59.6,6.2,65.3,12.2,68.9"/>
			<path class="st0" d="M39.5,67.7l0.1-0.1c0.5-0.3,0.9-0.7,1.3-1l0.1-0.1c1.3-1.1,2.5-2.2,3.6-3.5l0,0c0.3-0.4,0.6-0.8,0.9-1.2
				l0.1-0.1c0.3-0.4,0.5-0.7,0.8-1.1l0.1-0.1c0.7-1.1,1.4-2.2,1.9-3.4l0.1-0.1c0.1-0.3,0.3-0.6,0.4-0.9l0.1-0.2
				c0.1-0.3,0.2-0.6,0.3-0.8l0-0.2c0.3-0.8,0.6-1.7,0.8-2.5v0c0.1-0.2,0.1-0.5,0.1-0.7V21.1H37.9v47.6C38.5,68.4,39,68,39.5,67.7"/>
			<path class="st0" d="M82.5,61.4H85c3.2,0,4.3-1.8,4.3-5.3s-1.3-5.3-4.9-5.3h-1.9V61.4z M82.5,45.8h2.2c2.2,0,4-1.5,4-4.4
				c0-3.2-1.2-4.9-3.9-4.9h-2.3V45.8z M76.5,31.6h8.8c6.4,0,9.2,3.3,9.2,9.2c0,3-1.2,6.1-4.1,7.2c3,1.3,4.8,3.7,4.8,8.2
				c0,5.7-2.5,10-9.3,10h-9.4L76.5,31.6z"/>
			<path class="st0" d="M118,47.2h2.1c3.2,0,4.4-1.2,4.4-5.3s-1.2-5.3-4.4-5.3H118V47.2z M118,66.3h-6V31.6h8.3
				c6.7,0,10.1,2.8,10.1,10.2c0,5.6-2.2,7.8-4.2,8.7l5,15.7h-6L121,51.9c-1,0.1-2,0.1-3.1,0.1L118,66.3z"/>
			<path class="st0" d="M152.9,53.4h4.8l-2.4-14.9h-0.1L152.9,53.4z M151,66.3h-5.8l6.4-34.6h7.4l6.4,34.6h-5.8l-1.1-7.7H152
				L151,66.3z"/>
			<path class="st0" d="M191.2,40.2c-0.2-3-1.8-3.8-3.2-3.8c-1.9,0-3,1.2-3,3.4c0,5.9,12.1,8.7,12.1,18.1c0,5.7-3.8,8.9-9.4,8.9
				s-8.7-4.4-8.9-9.6l5.7-0.8c0.2,3.5,1.6,5.2,3.6,5.2s3.4-1.1,3.4-3.2c0-6.9-12.1-8.7-12.1-18.6c0-5.5,3.4-8.6,9.2-8.6
				c4.9,0,7.7,3.5,8.2,8.4L191.2,40.2z"/>
			<path class="st0" d="M224,40.2c-0.2-3-1.8-3.8-3.2-3.8c-1.9,0-3,1.2-3,3.4c0,5.9,12.1,8.7,12.1,18.1c0,5.7-3.8,8.9-9.4,8.9
				s-8.7-4.4-8.9-9.6l5.7-0.8c0.2,3.5,1.6,5.2,3.6,5.2s3.4-1.1,3.4-3.2c0-6.9-12.1-8.7-12.1-18.6c0-5.5,3.4-8.6,9.2-8.6
				c4.9,0,7.7,3.5,8.2,8.4L224,40.2z"/>
			<path class="st0" d="M225.6,21.5v-4.4h1.8v4.4h1.7v-9.9h-1.7v4h-1.8v-4h-1.7v9.9L225.6,21.5z M216.1,21.5h1.7v-8.4h1.6v-1.5h-5
				v1.5h1.6L216.1,21.5z M206.4,17.5c0.3,0,0.6,0,0.9,0l1.2,4.1h1.7l-1.4-4.5c0.6-0.3,1.2-0.9,1.2-2.5c0-2.1-1-2.9-2.9-2.9h-2.4v9.9
				h1.7V17.5z M206.4,13h0.6c0.9,0,1.3,0.3,1.3,1.5S207.9,16,207,16h-0.6L206.4,13z M196,14c0-0.7,0.2-1.1,0.9-1.1s0.9,0.4,0.9,1.1
				v5c0,0.7-0.2,1.1-0.9,1.1S196,19.7,196,19V14z M194.3,19c0.1,1.4,1.3,2.5,2.8,2.4c1.3-0.1,2.4-1.1,2.4-2.4v-5
				c-0.1-1.4-1.3-2.5-2.8-2.4c-1.3,0.1-2.4,1.1-2.4,2.4V19z M185.5,21.4v-6.1l0,0l2.2,6.2h1.5v-9.9h-1.5v5.6l0,0l-2.1-5.6h-1.6v9.9
				L185.5,21.4z M168.5,21.4v-6.1l0,0l2.2,6.2h1.5v-9.9h-1.5v5.6l0,0l-2.1-5.6H167v9.9L168.5,21.4z M158.3,14c0-0.7,0.2-1.1,0.9-1.1
				s0.9,0.4,0.9,1.1v5c0,0.7-0.2,1.1-0.9,1.1s-0.9-0.4-0.9-1.1V14z M156.6,19c0.1,1.4,1.3,2.5,2.8,2.4c1.3-0.1,2.4-1.1,2.4-2.4v-5
				c-0.1-1.4-1.3-2.5-2.8-2.4c-1.3,0.1-2.4,1.1-2.4,2.4V19z M148.7,21.4h1.7v-8.3h1.6v-1.5h-5v1.5h1.6L148.7,21.4z M142.8,13.8
				c0-1.3-1-2.4-2.3-2.4c0,0,0,0,0,0c-1.3-0.2-2.4,0.7-2.6,2c0,0.2,0,0.3,0,0.5c0,2.8,3.4,3.4,3.4,5.3c0,0.5-0.3,0.9-0.8,0.9
				c-0.1,0-0.1,0-0.2,0c-0.6,0-0.9-0.5-1-1.5l-1.6,0.2c-0.1,1.4,1,2.7,2.5,2.7c0,0,0,0,0.1,0c1.3,0.1,2.5-0.8,2.7-2.1
				c0-0.1,0-0.3,0-0.4c0-2.7-3.4-3.5-3.4-5.2c0-0.6,0.3-1,0.9-1c0.4,0,0.8,0.2,0.9,1.1L142.8,13.8z M129.4,17.4c0.3,0,0.6,0,0.9,0
				l1.2,4.1h1.7l-1.4-4.5c0.6-0.3,1.2-0.9,1.2-2.5c0-2.1-1-2.9-2.9-2.9h-2.4v9.9h1.7L129.4,17.4z M129.4,13h0.6
				c0.9,0,1.3,0.3,1.3,1.5S130.9,16,130,16h-0.6L129.4,13z M122.8,21.4V20h-3v-2.9h2.2v-1.5h-2.2v-2.5h2.8v-1.5h-4.5v9.9H122.8z
				 M110.8,11.6l-1.2,5.8l0,0l-1.2-5.8h-2.2v9.9h1.5v-7.7l0,0l1.5,7.7h0.8l1.5-7.7l0,0v7.7h1.5v-9.9L110.8,11.6z M101.6,21.4V20H99
				v-8.4h-1.7v9.9H101.6z M89,19.3h1.9l0.3,2.2h1.6L91,11.6h-2.1l-1.8,9.9h1.6L89,19.3z M89.9,13.6L89.9,13.6l0.7,4.2h-1.3
				L89.9,13.6z M79,21.5v-4h0.7c2.1,0,3.1-0.8,3.1-2.9s-1-2.9-3.1-2.9h-2.4v9.9L79,21.5z M79,13h0.7c1.1,0,1.4,0.3,1.4,1.5
				S80.8,16,79.7,16H79V13z"/>
		</g>
	</g>
</g>
</svg>
